<svg width="22" height="23" viewBox="0 0 22 23" fill="none" xmlns="http://www.w3.org/2000/svg">
<rect x="5.05093" y="1.65396" width="15.5299" height="15.5299" stroke="white" stroke-width="1.76923" stroke-linejoin="round"/>
<path d="M6.10095 1.65396C5.86634 1.65396 5.64133 1.74716 5.47543 1.91306L1.1821 6.20639C1.0162 6.37229 0.923002 6.59729 0.923002 6.83191V20.4275C0.923002 20.916 1.31906 21.3121 1.80762 21.3121H15.4032C15.6378 21.3121 15.8628 21.2189 16.0287 21.053L20.322 16.7596C20.4879 16.5937 20.5811 16.3687 20.5811 16.1341V2.53857C20.5811 2.05001 20.1851 1.65396 19.6965 1.65396H6.10095Z" fill="black" stroke="white" stroke-width="1.76923" stroke-linejoin="round"/>
<rect x="0.923002" y="5.78189" width="15.5299" height="15.5299" fill="black" stroke="white" stroke-width="1.76923" stroke-linejoin="round"/>
<line x1="15.6308" y1="6.04099" x2="19.759" y2="1.91278" stroke="white" stroke-width="1.76923"/>
</svg>
